HIERARCHY
ROOT Hips
{
	OFFSET 0.00000 0.00000 0.00000
	CHANNELS 6 Xposition Yposition Zposition Zrotation Yrotation Xrotation 
	JOINT LHipJoint
	{
		OFFSET 0 0 0
		CHANNELS 3 Zrotation Yrotation Xrotation
		JOINT LeftUpLeg
		{
			OFFSET 1.26600 -1.82114 0.91038
			CHANNELS 3 Zrotation Yrotation Xrotation
			JOINT LeftLeg
			{
				OFFSET 2.50076 -6.87080 0.00000
				CHANNELS 3 Zrotation Yrotation Xrotation
				JOINT LeftFoot
				{
					OFFSET 2.57364 -7.07102 0.00000
					CHANNELS 3 Zrotation Yrotation Xrotation
					JOINT LeftToeBase
					{
						OFFSET 0.13572 -0.37290 1.97004
						CHANNELS 3 Zrotation Yrotation Xrotation
						End Site
						{
							OFFSET 0.00000 -0.00000 1.01383
						}
					}
				}
			}
		}
	}
	JOINT RHipJoint
	{
		OFFSET 0 0 0
		CHANNELS 3 Zrotation Yrotation Xrotation
		JOINT RightUpLeg
		{
			OFFSET -1.20803 -1.82114 0.91038
			CHANNELS 3 Zrotation Yrotation Xrotation
			JOINT RightLeg
			{
				OFFSET -2.54916 -7.00377 0.00000
				CHANNELS 3 Zrotation Yrotation Xrotation
				JOINT RightFoot
				{
					OFFSET -2.56374 -7.04382 0.00000
					CHANNELS 3 Zrotation Yrotation Xrotation
					JOINT RightToeBase
					{
						OFFSET -0.23520 -0.64621 2.09921
						CHANNELS 3 Zrotation Yrotation Xrotation
						End Site
						{
							OFFSET -0.00000 -0.00000 1.10065
						}
					}
				}
			}
		}
	}
	JOINT LowerBack
	{
		OFFSET 0 0 0
		CHANNELS 3 Zrotation Yrotation Xrotation
		JOINT Spine
		{
			OFFSET 0.05492 2.10797 -0.12074
			CHANNELS 3 Zrotation Yrotation Xrotation
			JOINT Spine1
			{
				OFFSET 0.04577 2.11592 -0.04483
				CHANNELS 3 Zrotation Yrotation Xrotation
				JOINT Neck
				{
					OFFSET 0 0 0
					CHANNELS 3 Zrotation Yrotation Xrotation
					JOINT Neck1
					{
						OFFSET -0.10759 1.80167 0.15770
						CHANNELS 3 Zrotation Yrotation Xrotation
						JOINT Head
						{
							OFFSET 0.09237 1.77509 -0.40848
							CHANNELS 3 Zrotation Yrotation Xrotation
							End Site
							{
								OFFSET 0.03805 1.84093 -0.15754
							}
						}
					}
				}
				JOINT LeftShoulder
				{
					OFFSET 0 0 0
					CHANNELS 3 Zrotation Yrotation Xrotation
					JOINT LeftArm
					{
						OFFSET 3.42372 1.09575 -0.28209
						CHANNELS 3 Zrotation Yrotation Xrotation
						JOINT LeftForeArm
						{
							OFFSET 4.95681 -0.00000 0.00000
							CHANNELS 3 Zrotation Yrotation Xrotation
							JOINT LeftHand
							{
								OFFSET 3.40915 -0.00000 0.00000
								CHANNELS 3 Zrotation Yrotation Xrotation
								JOINT LeftFingerBase
								{
									OFFSET 0 0 0
									CHANNELS 3 Zrotation Yrotation Xrotation
									JOINT LeftHandIndex1
									{
										OFFSET 0.61640 -0.00000 0.00000
										CHANNELS 3 Zrotation Yrotation Xrotation
										End Site
										{
											OFFSET 0.49696 -0.00000 0.00000
										}
									}
								}
								JOINT LThumb
								{
									OFFSET 0 0 0
									CHANNELS 3 Zrotation Yrotation Xrotation
									End Site
									{
										OFFSET 0.50455 -0.00000 0.50455
									}
								}
							}
						}
					}
				}
				JOINT RightShoulder
				{
					OFFSET 0 0 0
					CHANNELS 3 Zrotation Yrotation Xrotation
					JOINT RightArm
					{
						OFFSET -3.24731 1.15872 -0.32221
						CHANNELS 3 Zrotation Yrotation Xrotation
						JOINT RightForeArm
						{
							OFFSET -5.35200 -0.00000 0.00000
							CHANNELS 3 Zrotation Yrotation Xrotation
							JOINT RightHand
							{
								OFFSET -3.43721 -0.00000 -0.00000
								CHANNELS 3 Zrotation Yrotation Xrotation
								JOINT RightFingerBase
								{
									OFFSET 0 0 0
									CHANNELS 3 Zrotation Yrotation Xrotation
									JOINT RightHandIndex1
									{
										OFFSET -0.72009 -0.00000 0.00000
										CHANNELS 3 Zrotation Yrotation Xrotation
										End Site
										{
											OFFSET -0.58056 -0.00000 0.00000
										}
									}
								}
								JOINT RThumb
								{
									OFFSET 0 0 0
									CHANNELS 3 Zrotation Yrotation Xrotation
									End Site
									{
										OFFSET -0.58942 -0.00000 0.58942
									}
								}
							}
						}
					}
				}
			}
		}
	}
}
MOTION
Frames: 14
Frame Time: .0083333
26.5620 17.2681 -21.9386 611.5590 -79.3378 832.7960 0.0000 0.0000 0.0000 -2.9556 -13.1924 -30.8435 1.7434 8.3098 23.6592 0.3720 -6.4132 -11.0777 0.0023 0.3071 0.8439 0.0000 0.0000 0.0000 32.6741 -7.6862 17.4304 0.0000 -0.0000 0.0000 -0.2754 4.0731 -9.3491 -0.4871 4.4753 -12.4177 9.9137 2.6483 3.8498 3.9688 3.7181 1.7998 -1.5444 1.8300 0.0899 -9.8789 -2.6390 -16.1055 5.8134 -3.5234 31.4362 3.3899 -2.2088 13.5953 -0.0000 -0.0000 0.0000 -91.7199 8.5321 14.0516 12.7487 -20.9179 -2.3628 -0.0000 -0.0000 3.4874 18.7298 22.0214 7.2453 -7.1250 0.0000 -0.0000 -10.4590 52.8053 -2.0265 -0.0000 -0.0000 0.0000 85.5545 3.8288 19.6239 -15.5259 24.8736 -3.4441 0.0000 -0.0000 -11.7774 -22.2743 12.0226 -4.8767 7.1250 -0.0000 -0.0000 3.4298 -17.0340 2.2788
26.4436 17.2402 -21.9246 611.3320 -79.3654 833.0200 0.0000 0.0000 0.0000 -4.2199 -9.3654 -31.8528 1.8024 8.4417 24.0639 0.0044 -10.2437 -7.2537 0.2404 3.1551 8.7109 0.0000 0.0000 0.0000 32.4634 -7.7402 17.9100 0.0000 0.0000 -0.0000 -0.2477 4.1781 -8.8880 -0.4453 4.2815 -11.8701 9.8611 2.7066 3.8257 3.9218 3.7946 1.7849 -1.5651 1.8691 0.0948 -9.7070 -2.7839 -15.6191 5.4842 -3.6686 30.6912 3.1886 -2.2754 13.1784 0.0000 0.0000 0.0000 -91.5244 8.5045 14.0669 12.4872 -20.5313 -2.2703 -0.0000 -0.0000 3.9631 18.7261 21.8651 7.1954 -7.1250 0.0000 -0.0000 -10.4022 52.6462 -1.9746 0.0000 0.0000 0.0000 85.6941 3.5754 19.2912 -15.5010 24.8394 -3.4336 0.0000 -0.0000 -11.7578 -22.4507 11.5625 -4.7345 7.1250 -0.0000 -0.0000 3.2881 -17.5103 2.1500
26.3217 17.2373 -21.9128 611.1870 -79.4221 833.1830 0.0000 0.0000 0.0000 -5.0372 -7.9845 -32.2091 1.8618 8.5721 24.4657 -0.0471 -10.4174 -6.5226 0.0000 0.0134 0.0369 0.0000 0.0000 0.0000 32.2665 -7.7840 18.2807 0.0000 -0.0000 0.0000 -0.2180 4.1336 -8.3583 -0.5183 4.6140 -12.8109 9.8736 2.7051 3.7977 3.8648 3.7912 1.7842 -1.6291 1.8696 0.1139 -9.9404 -2.7801 -15.8702 5.9532 -3.7345 30.8996 3.4101 -2.2733 13.3409 -0.0000 -0.0000 0.0000 -91.3857 8.5326 13.8694 12.3265 -20.2925 -2.2142 -0.0000 -0.0000 4.4320 18.4779 21.4546 6.9685 -7.1250 0.0000 -0.0000 -10.4922 52.1861 -1.8730 -0.0000 -0.0000 0.0000 85.8660 3.4868 18.7577 -15.3854 24.6803 -3.3852 0.0000 -0.0000 -11.4910 -22.3947 11.4020 -4.6571 7.1250 -0.0000 -0.0000 3.3211 -17.6876 2.1587
26.1924 17.2470 -21.8991 611.0850 -79.3426 833.2890 0.0000 0.0000 0.0000 -5.2289 -7.4584 -32.3142 1.8969 8.6479 24.6999 -0.0912 -10.0108 -5.3729 0.0001 -0.0596 -0.1638 0.0000 0.0000 0.0000 32.1730 -7.8023 18.7219 0.0000 0.0000 -0.0000 -0.1862 4.2038 -7.7739 -0.5523 4.7609 -13.2278 10.0282 2.7756 3.7647 3.7672 3.8947 1.7158 -1.8161 1.9213 0.0891 -9.5566 -2.7851 -15.9057 5.8153 -3.8229 31.0181 3.2761 -2.2885 13.3945 -0.0000 0.0000 0.0000 -91.0683 8.6896 13.8985 12.1965 -20.0987 -2.1694 -0.0000 -0.0000 3.7539 18.2559 20.6876 6.6468 -7.1250 0.0000 -0.0000 -10.4280 51.3700 -1.6513 -0.0000 0.0000 0.0000 86.1928 3.1918 18.1310 -15.2660 24.5153 -3.3355 0.0000 -0.0000 -11.3845 -22.4147 11.7407 -4.7976 7.1250 -0.0000 -0.0000 3.3205 -17.3227 2.1849
26.0571 17.2792 -21.8869 610.3790 -79.2864 834.0120 0.0000 0.0000 0.0000 -5.4608 -6.9657 -32.2009 1.9150 8.6868 24.8204 -0.0993 -9.6442 -4.8699 0.0016 -0.2571 -0.7065 0.0000 0.0000 0.0000 31.9441 -7.7191 19.2137 0.0000 -0.0000 0.0000 -0.1415 4.4271 -6.9178 -0.3772 3.9445 -10.9206 10.0007 2.8707 3.6474 3.7019 4.0125 1.6664 -1.8656 1.9817 0.1181 -9.1698 -2.6981 -15.9440 5.8133 -3.8271 31.1712 3.2104 -2.2502 13.4568 0.0000 0.0000 0.0000 -90.7818 8.7750 14.1869 12.0193 -19.8336 -2.1088 -0.0000 -0.0000 2.9443 18.1527 20.4200 6.5259 -7.1250 0.0000 -0.0000 -10.4333 51.0813 -1.5777 0.0000 0.0000 0.0000 86.3843 2.7999 17.7806 -15.1877 24.4070 -3.3031 0.0000 -0.0000 -11.4701 -22.5222 11.8938 -4.8848 7.1250 -0.0000 -0.0000 3.2517 -17.1484 2.1519
25.9205 17.3171 -21.8724 609.1640 -79.5094 835.3180 0.0000 0.0000 0.0000 -5.9286 -6.6723 -32.0565 1.9226 8.7029 24.8704 -0.1193 -9.7775 -4.5692 0.0032 -0.3677 -1.0102 0.0000 0.0000 0.0000 31.3730 -7.5980 19.5997 0.0000 0.0000 -0.0000 -0.0892 4.5606 -5.7842 -0.1399 2.4103 -6.6409 9.7108 2.9754 3.4225 3.5760 4.1228 1.6490 -1.8271 2.0434 0.2247 -9.3198 -2.9441 -15.5288 5.8844 -4.1803 30.7706 3.1999 -2.4090 13.2382 -0.0000 -0.0000 0.0000 -90.7951 8.6770 13.5520 11.8078 -19.5158 -2.0376 -0.0000 -0.0000 3.8673 18.0569 20.6627 6.5625 -7.1250 0.0000 -0.0000 -10.6142 51.3114 -1.6660 -0.0000 -0.0000 0.0000 86.5528 2.6108 17.1047 -14.9856 24.1260 -3.2201 0.0000 -0.0000 -10.9378 -22.3924 12.1111 -4.9406 7.1250 -0.0000 -0.0000 3.3513 -16.9279 2.2341
25.7873 17.3478 -21.8550 607.6820 -79.9467 836.9080 0.0000 0.0000 0.0000 -6.4563 -6.9699 -31.7028 1.9223 8.7022 24.8682 -0.1191 -9.6698 -4.4660 0.0007 -0.1746 -0.4796 0.0000 0.0000 0.0000 30.5895 -7.5186 19.9281 0.0000 -0.0000 0.0000 -0.0460 4.5735 -4.6690 -0.0195 0.9008 -2.4759 9.1860 3.0448 3.2358 3.4435 4.1902 1.6187 -1.6695 2.0809 0.2739 -9.5494 -3.0073 -15.5954 6.1259 -4.2894 30.8936 3.3211 -2.4552 13.3277 0.0000 0.0000 0.0000 -90.7897 8.5714 13.5169 11.5900 -19.1869 -1.9655 -0.0000 -0.0000 3.7808 18.8058 20.6640 6.8525 -7.1250 0.0000 -0.0000 -9.8797 51.4391 -1.5799 0.0000 0.0000 0.0000 86.6376 2.4658 16.4642 -14.7399 23.7825 -3.1203 0.0000 -0.0000 -10.1513 -22.2093 12.5039 -5.0516 7.1250 -0.0000 -0.0000 3.4953 -16.5254 2.3612
25.6532 17.3705 -21.8399 606.3230 -80.3094 838.1670 0.0000 0.0000 0.0000 -6.5842 -8.3984 -30.5972 1.9185 8.6941 24.8431 -0.0385 -8.4676 -5.1396 0.0029 -0.3493 -0.9597 0.0000 0.0000 0.0000 30.0918 -7.5873 20.3776 0.0000 0.0000 -0.0000 -0.0274 4.0055 -3.8288 -0.1244 2.2739 -6.2633 8.6848 3.0448 3.3385 3.3400 4.1997 1.5927 -1.5112 2.0825 0.1594 -9.4064 -2.9682 -15.7038 6.0121 -4.2416 31.0580 3.2615 -2.4357 13.4094 0.0000 0.0000 0.0000 -90.5564 8.7243 14.3255 11.5791 -19.1704 -1.9619 -0.0000 -0.0000 2.6338 19.4046 20.9941 7.1927 -7.1250 0.0000 -0.0000 -9.4056 51.8787 -1.6048 0.0000 0.0000 0.0000 86.7151 2.1313 16.3429 -14.6496 23.6557 -3.0840 0.0000 -0.0000 -10.1113 -22.3651 12.2785 -5.0008 7.1250 -0.0000 -0.0000 3.3774 -16.7513 2.2646
25.5110 17.3984 -21.8263 604.7190 -80.7596 839.5710 0.0000 0.0000 0.0000 -7.7467 -6.7371 -30.5576 1.9354 8.7301 24.9547 -0.1642 -9.9373 -3.7167 0.0101 -0.6496 -1.7851 0.0000 0.0000 0.0000 29.5304 -7.3083 19.6541 -0.0223 -0.9642 2.6503 -0.0301 3.9095 -3.8743 -0.1435 2.4411 -6.7264 8.1801 2.9844 3.4377 3.1770 4.1227 1.6297 -1.4074 2.0457 0.1093 -9.2995 -2.9177 -15.9372 5.9215 -4.1597 31.2467 3.2231 -2.4003 13.5275 -0.0000 -0.0000 0.0000 -90.5563 8.8801 13.8817 11.6383 -19.2599 -1.9813 -0.0000 -0.0000 2.9384 19.4268 21.6141 7.4019 -7.1250 0.0000 -0.0000 -9.6082 52.5159 -1.7907 -0.0000 -0.0000 0.0000 86.8437 1.8392 16.3152 -14.5847 23.5643 -3.0580 0.0000 -0.0000 -10.3723 -22.8014 11.8978 -4.9535 7.1250 -0.0000 -0.0000 3.0572 -17.1173 2.0249
25.3701 17.4134 -21.8087 604.0680 -81.1253 840.1800 0.0000 0.0000 0.0000 -8.5497 -5.8795 -30.4374 1.9633 8.7892 25.1383 -0.2296 -10.6583 -3.0207 0.0256 -1.0322 -2.8374 0.0000 0.0000 0.0000 29.2205 -6.7871 17.9234 -0.1477 -2.4763 6.8240 -0.0459 4.1401 -4.4755 -0.1243 2.2732 -6.2613 7.8594 2.8819 3.2745 3.0781 3.9618 1.6766 -1.3201 1.9716 0.2197 -9.4142 -2.8457 -16.0154 6.0135 -4.0331 31.2034 3.3000 -2.3436 13.5182 0.0000 -0.0000 0.0000 -90.7923 8.8299 12.6949 11.5924 -19.1906 -1.9662 -0.0000 -0.0000 3.9279 19.5205 21.7538 7.4853 -7.1250 0.0000 -0.0000 -9.5665 52.6753 -1.8203 0.0000 -0.0000 0.0000 86.9298 1.7150 15.9802 -14.3845 23.2817 -2.9784 0.0000 -0.0000 -10.0226 -22.8095 11.8787 -4.9476 7.1250 -0.0000 -0.0000 3.0507 -17.1370 2.0192
25.2270 17.4196 -21.7846 604.8120 -81.1772 839.2800 0.0000 0.0000 0.0000 -8.8767 -5.3094 -30.0187 1.9820 8.8285 25.2603 -0.2647 -11.0804 -2.7270 0.0493 -1.4325 -3.9397 0.0000 0.0000 0.0000 29.2119 -6.5003 16.7512 -0.3164 -3.6159 9.9986 -0.0491 4.1557 -4.5780 -0.0951 1.9888 -5.4748 7.9734 2.8803 3.2052 3.0279 3.9524 1.7206 -1.4281 1.9722 0.3151 -9.3639 -2.8858 -15.7344 6.0950 -4.1445 30.9407 3.3005 -2.3734 13.3562 0.0000 0.0000 0.0000 -90.6725 8.7641 12.4285 11.5159 -19.0747 -1.9412 -0.0000 -0.0000 4.4529 19.2199 21.6814 7.3392 -7.1250 0.0000 -0.0000 -9.8399 52.5477 -1.8423 0.0000 0.0000 0.0000 87.1754 1.4862 15.2146 -14.1784 22.9891 -2.8974 0.0000 -0.0000 -9.4652 -22.5952 11.9261 -4.9153 7.1250 -0.0000 -0.0000 3.2022 -17.1067 2.1219
25.0760 17.4416 -21.7602 604.4870 -81.2918 839.3160 0.0000 0.0000 0.0000 -9.2125 -5.0751 -29.1792 1.9893 8.8438 25.3079 -0.2659 -11.1660 -2.8246 0.0621 -1.6082 -4.4240 0.0000 0.0000 0.0000 28.8504 -6.6288 15.8479 -0.5108 -4.5813 12.7182 -0.0292 4.4262 -4.0992 -0.0700 1.7071 -4.6969 7.9249 2.9376 3.2633 2.9595 4.0301 1.7881 -1.4737 2.0146 0.3604 -9.3904 -2.9444 -15.6981 6.2872 -4.3016 31.0143 3.3583 -2.4242 13.4005 -0.0000 -0.0000 0.0000 -90.4772 8.8248 12.7443 11.5421 -19.1144 -1.9497 -0.0000 -0.0000 4.4721 19.1653 21.8893 7.3829 -7.1250 0.0000 -0.0000 -9.9728 52.7495 -1.9171 -0.0000 -0.0000 0.0000 87.3579 1.1329 14.9268 -14.1119 22.8944 -2.8715 0.0000 -0.0000 -10.0306 -22.8682 11.7964 -4.9280 7.1250 -0.0000 -0.0000 3.0062 -17.2198 1.9842
24.9341 17.4708 -21.7426 602.7160 -81.6584 840.9980 0.0000 0.0000 0.0000 -9.7688 -5.1661 -28.4748 1.9949 8.8554 25.3439 -0.2334 -10.8808 -3.2314 0.1102 -2.1405 -5.8940 0.0000 0.0000 0.0000 28.2935 -6.3869 14.9426 -0.7244 -5.4384 15.1634 -0.0076 4.2746 -3.2810 -0.0833 1.8617 -5.1237 7.3756 2.9638 3.2457 2.9048 4.0562 1.7756 -1.2296 2.0256 0.3227 -9.5248 -2.9146 -15.8644 6.4455 -4.2847 31.3262 3.4554 -2.4196 13.5759 -0.0000 -0.0000 0.0000 -90.5462 8.9748 12.7587 11.7002 -19.3535 -2.0018 -0.0000 -0.0000 4.3261 19.3807 22.4948 7.6653 -7.1250 0.0000 -0.0000 -9.9913 53.4048 -2.0816 -0.0000 -0.0000 0.0000 87.3032 0.7987 14.8362 -13.9915 22.7225 -2.8248 0.0000 -0.0000 -10.4304 -22.9216 11.6688 -4.8884 7.1250 -0.0000 -0.0000 2.9633 -17.3519 1.9473
24.7922 17.4978 -21.7253 601.0610 -81.9503 842.6920 0.0000 0.0000 0.0000 -10.2959 -4.9965 -27.9820 1.9875 8.8401 25.2963 -0.2095 -10.6570 -3.5134 1.3355 -7.3175 -20.6595 0.0000 0.0000 0.0000 27.8182 -6.1476 13.8568 -0.9729 -6.2796 17.5977 0.0134 4.0661 -2.2561 -0.1275 2.3019 -6.3407 6.9361 2.9585 3.0076 2.8833 4.0197 1.7796 -0.9965 2.0095 0.4267 -9.6894 -2.8532 -15.9160 6.5324 -4.1871 31.5060 3.5401 -2.3914 13.6609 0.0000 0.0000 0.0000 -90.7334 9.0611 12.6314 11.8654 -19.6025 -2.0569 -0.0000 -0.0000 4.0152 19.6125 23.1355 7.9699 -7.1250 0.0000 -0.0000 -10.0140 54.0998 -2.2571 0.0000 0.0000 0.0000 87.2037 0.5927 14.3482 -13.7431 22.3663 -2.7296 0.0000 -0.0000 -9.4571 -22.4396 11.6861 -4.7816 7.1250 -0.0000 -0.0000 3.3009 -17.3788 2.1679
